<svg version="1.1" xmlns="http://www.w3.org/2000/svg" xmlns:xlink="http://www.w3.org/1999/xlink" width="514.22522" height="500" viewBox="417,138,514.22522,500"><g id="document" fill-opacity="0" fill="#dddddd" fill-rule="nonzero" stroke="#000000" stroke-width="0" stroke-linecap="butt" stroke-linejoin="miter" stroke-miterlimit="10" stroke-dasharray="" stroke-dashoffset="0" font-family="none" font-weight="none" font-size="none" text-anchor="none" style="mix-blend-mode: normal"><rect x="583.8" y="138" transform="scale(0.71429,1)" width="700" height="500" id="Shape 1 1" vector-effect="non-scaling-stroke"/></g><g fill="none" fill-rule="nonzero" stroke="none" stroke-width="none" stroke-linecap="none" stroke-linejoin="none" stroke-miterlimit="10" stroke-dasharray="" stroke-dashoffset="0" font-family="none" font-weight="none" font-size="none" text-anchor="none" style="mix-blend-mode: normal"><g id="stage"><g id="Layer2 1"><path d="" id="Path 1" fill="#ffffff" stroke="#000000" stroke-width="1" stroke-linecap="round" stroke-linejoin="round"/><path d="M828.10149,431.42766h34.94401h36.15999l0.88688,-0.01692c-17.87405,42.80286 -61.39308,73.02118 -112.24248,73.02118c-66.78634,0 -120.92739,-52.12835 -120.92739,-116.43192c0,-64.30357 54.14104,-116.43192 120.92739,-116.43192c50.86175,0 94.38957,30.233 112.25551,73.05237h-71.77388c-10.3167,-9.22591 -23.94383,-14.83641 -38.88334,-14.83641c-32.20015,0 -58.30352,26.06417 -58.30352,58.21596c0,7.5235 1.42931,14.71367 4.03159,21.31455c7.36673,22.37637 28.43663,38.52974 53.27935,38.52974c14.75918,0 29.63239,-7.09599 39.6459,-16.41664z" id="Path 1" fill="#444e59" stroke="#5cb9f2" stroke-width="0" stroke-linecap="butt" stroke-linejoin="bevel"/><path d="M435.22522,271.56807l231.69727,77.11644c-4.41171,12.28154 -6.81519,25.51826 -6.81519,39.31549c0,13.79723 2.40348,27.03394 6.81519,39.31549l-231.69727,77.11644v-87.32396l152.70296,-28.82059c0.76135,-0.14369 0.76135,-0.43108 0,-0.57477l-152.70296,-28.82059z" id="Path 1" fill="#121f2b" stroke="#5cb9f2" stroke-width="0" stroke-linecap="butt" stroke-linejoin="bevel"/><path d="" id="Path 1" fill="#ffffff" stroke="#000000" stroke-width="1" stroke-linecap="round" stroke-linejoin="round"/><path d="" id="Path 1" fill="none" stroke="#000000" stroke-width="1" stroke-linecap="round" stroke-linejoin="round"/><path d="" id="Path 1" fill="none" stroke="#000000" stroke-width="1" stroke-linecap="round" stroke-linejoin="round"/><path d="" id="Path 1" fill="none" stroke="#000000" stroke-width="1" stroke-linecap="round" stroke-linejoin="round"/><path d="" id="Path 1" fill="none" stroke="#000000" stroke-width="1" stroke-linecap="round" stroke-linejoin="round"/><path d="" id="Path 1" fill="none" stroke="#000000" stroke-width="1" stroke-linecap="round" stroke-linejoin="round"/><path d="M931.22522,405.55232" id="Path 1" fill="#ffffff" stroke="#5cb9f2" stroke-width="0" stroke-linecap="butt" stroke-linejoin="bevel"/><path d="M783.51394,419.15578v-49.84925h37.38693v49.84925z" id="Path 1" fill="#000000" stroke="#5cb9f2" stroke-width="0" stroke-linecap="butt" stroke-linejoin="bevel"/><path d="M828.44711,412.92463v-43.61809h71.65829v43.61809z" id="Path 1" fill="#b1fcff" stroke="#5cb9f2" stroke-width="0" stroke-linecap="butt" stroke-linejoin="bevel"/><path d="M748.92349,297.43485" id="Path 1" fill="none" stroke="#5cb9f2" stroke-width="0" stroke-linecap="butt" stroke-linejoin="bevel"/></g></g></g></svg>